<?xml version="1.0" encoding="utf-8"?>
<!-- Generator: Adobe Illustrator 24.1.2, SVG Export Plug-In . SVG Version: 6.00 Build 0)  -->
<svg version="1.1" id="Layer_1" xmlns="http://www.w3.org/2000/svg" xmlns:xlink="http://www.w3.org/1999/xlink" x="0px" y="0px"
	 viewBox="0 0 1920 1080" style="enable-background:new 0 0 1920 1080;" xml:space="preserve">
<style type="text/css">
	.st0{fill:none;stroke:#000000;stroke-width:0.7;stroke-miterlimit:10;}
	.st1{fill:#FFFFFF;stroke:#000000;stroke-width:5;stroke-miterlimit:10;}
	.st2{font-family:'HelsinkiStd';}
	.st3{font-size:59.7426px;}
	.st4{font-size:28.4488px;}
	.st5{font-family:'HelsinkiSpecialStd';}
	.st6{font-size:200.767px;}
	.st7{font-size:189.54px;}
	.st8{font-size:60.8891px;}
	.st9{fill:none;stroke:#000000;stroke-width:0.6;stroke-linecap:square;stroke-miterlimit:10;}
	.st10{font-family:'EngraversMT';}
	.st11{font-size:139.638px;}
	.st12{font-family:'CMUSerif-Roman';}
	.st13{font-size:14.2244px;}
	.st14{font-size:9px;}
	.st15{font-family:'CMUSerif-Bold';}
	.st16{font-size:25.604px;}
</style>
<polyline class="st0" points="1817,603.3 93,603.3 93,546.4 1817,546.4 "/>
<line class="st1" x1="1817" y1="426.9" x2="1817" y2="603.3"/>
<polyline class="st0" points="1817,483.8 93,483.8 93,426.9 1817,426.9 "/>
<line class="st0" x1="93" y1="441.1" x2="1817" y2="441.1"/>
<line class="st0" x1="93" y1="455.3" x2="1817" y2="455.3"/>
<line class="st0" x1="93" y1="469.6" x2="1817" y2="469.6"/>
<line class="st0" x1="93" y1="560.6" x2="1817" y2="560.6"/>
<line class="st0" x1="93" y1="574.8" x2="1817" y2="574.8"/>
<line class="st0" x1="93" y1="589" x2="1817" y2="589"/>
<polyline class="st0" points="1112.2,427.6 1112.2,821.6 1169.1,821.6 1169.1,427.6 "/>
<line class="st0" x1="1126.4" y1="821.6" x2="1126.4" y2="427.6"/>
<line class="st0" x1="1140.6" y1="821.6" x2="1140.6" y2="427.6"/>
<line class="st0" x1="1154.9" y1="821.6" x2="1154.9" y2="427.6"/>
<text transform="matrix(1 0 0 1 433.5674 455.9258)" class="st2 st3">q</text>
<text transform="matrix(6.123234e-17 1 -1 6.123234e-17 450.4932 445.4038)" class="st2 st3">q</text>
<text transform="matrix(-1 0 0 -1 452.4824 455.2178)" class="st2 st3">q</text>
<text transform="matrix(7.273171e-03 -1 1 7.273171e-03 435.4722 465.7913)" class="st2 st3">q</text>
<text transform="matrix(1 7.273171e-03 -7.273171e-03 1 803.3489 498.5162)" class="st2 st3">q</text>
<text transform="matrix(1 7.273171e-03 -7.273171e-03 1 966.9292 455.843)" class="st2 st3">q</text>
<text transform="matrix(1 7.273171e-03 -7.273171e-03 1 1131.9327 393.2553)" class="st2 st3">w</text>
<text transform="matrix(1 7.273171e-03 -7.273171e-03 1 1114.8635 437.351)" class="st2 st4">q</text>
<text transform="matrix(1 7.273171e-03 -7.273171e-03 1 1143.312 452.9978)" class="st2 st4">q</text>
<text transform="matrix(-1 -7.273171e-03 7.273171e-03 -1 1138.7513 458.7666)" class="st2 st4">q</text>
<text transform="matrix(-1 -7.273171e-03 7.273171e-03 -1 1167.2013 472.9915)" class="st2 st4">q</text>
<text transform="matrix(-1 -7.273171e-03 7.273171e-03 -1 1231.2112 467.3006)" class="st2 st4">q</text>
<text transform="matrix(-1 -7.273171e-03 7.273171e-03 -1 1259.6602 484.3693)" class="st2 st4">q</text>
<text transform="matrix(-1 -7.273171e-03 7.273171e-03 -1 1726.2212 599.588)" class="st2 st4">q</text>
<text transform="matrix(-0.7625 0.647 -0.647 -0.7625 1746.7675 596.8217)" class="st2 st4">q</text>
<text transform="matrix(-1 -7.273171e-03 7.273171e-03 -1 803.8751 532.1122)" class="st2 st3">q</text>
<text transform="matrix(-1 -7.273171e-03 7.273171e-03 -1 984.5265 574.7866)" class="st2 st3">q</text>
<text transform="matrix(1 7.273171e-03 -7.273171e-03 1 1271.3318 546.8767)" class="st2 st3">q</text>
<text transform="matrix(-1 -7.273171e-03 7.273171e-03 -1 1434.017 603.2324)" class="st2 st3">q</text>
<text transform="matrix(-1 -7.273171e-03 7.273171e-03 -1 1741.2654 603.2327)" class="st2 st3">q</text>
<text transform="matrix(1 7.273171e-03 -7.273171e-03 1 1726.51 603.7738)" class="st2 st3">q</text>
<text transform="matrix(0.5633 0.8262 -0.8262 0.5633 1726.8785 534.1238)" class="st2 st3">q</text>
<text transform="matrix(-1 -7.273171e-03 7.273171e-03 -1 1599.0222 658.7094)" class="st2 st3">q</text>
<text transform="matrix(-1 -7.273171e-03 7.273171e-03 -1 1599.0222 658.7094)" class="st2 st3">q</text>
<text transform="matrix(1 7.273171e-03 -7.273171e-03 1 1580.0011 659.2507)" class="st2 st3">q</text>
<text transform="matrix(1 7.273171e-03 -7.273171e-03 1 1557.2417 652.1387)" class="st5 st3">l</text>
<text transform="matrix(-1 -7.273171e-03 7.273171e-03 -1 1717.423 575.0253)" class="st5 st3">l</text>
<text transform="matrix(7.273171e-03 -1 1 7.273171e-03 1132.4652 646.4417)" class="st2 st3">q</text>
<text transform="matrix(-7.273171e-03 1 -1 -7.273171e-03 1161.7953 709.9242)" class="st2 st3">q</text>
<text transform="matrix(-0.7071 0.7071 -0.7071 -0.7071 449.3891 568.1494)" class="st2 st3">q</text>
<text transform="matrix(-0.7071 -0.7071 0.7071 -0.7071 444.8606 587.559)" class="st2 st3">q</text>
<text transform="matrix(0.7071 -0.7071 0.7071 0.7071 436.5155 582.0243)" class="st2 st3">q</text>
<text transform="matrix(0.7019 0.7122 -0.7122 0.7019 441.0673 562.5191)" class="st2 st3">q</text>
<text transform="matrix(0.3789 -0.9254 0.9254 0.3789 612.6805 523.1802)" class="st2 st3">q</text>
<text transform="matrix(-0.3789 0.9254 -0.9254 -0.3789 619.0256 506.0266)" class="st2 st3">q</text>
<text transform="matrix(0.3401 0 0 1 123.9033 612.5981)" class="st5 st6">z</text>
<g>
	<text transform="matrix(1 0 0 1 211.7041 467.3203)" class="st2 st7">4</text>
	<text transform="matrix(1 0 0 1 211.7041 564.0464)" class="st2 st7">4</text>
</g>
<g>
	<text transform="matrix(-1.836970e-16 -1 1 -1.836970e-16 1124.6719 778.5029)" class="st2 st8">2</text>
	<text transform="matrix(-1.836970e-16 -1 1 -1.836970e-16 1155.7461 778.5029)" class="st2 st8">4</text>
</g>
<polyline class="st9" points="464.3,510.1 464.3,512.9 467.1,512.9 467.1,510.1 464.3,510.1 "/>
<polyline class="st9" points="521.2,510.1 521.2,512.9 524,512.9 524,510.1 521.2,510.1 "/>
<polyline class="st9" points="462.8,512.9 462.8,517.2 458.6,520.1 "/>
<polyline class="st9" points="836.9,514.4 836.9,518.6 832.7,521.5 "/>
<polyline class="st9" points="474.2,512.9 474.2,517.2 469.9,520.1 "/>
<line class="st9" x1="472.8" y1="510.1" x2="472.8" y2="514.4"/>
<polyline class="st9" points="478.5,510.1 478.5,514.4 481.3,514.4 481.3,510.1 "/>
<polyline class="st9" points="481.3,514.4 481.3,517.2 484.2,517.2 484.2,520.1 481.3,520.1 481.3,524.3 "/>
<polyline class="st9" points="487,512.9 489.9,512.9 489.9,515.8 487,515.8 487,512.9 487,510.1 "/>
<polyline class="st9" points="505.5,512.9 508.4,512.9 508.4,515.8 505.5,515.8 505.5,512.9 505.5,510.1 "/>
<polyline class="st9" points="501.2,510.1 498.4,510.1 498.4,514.4 501.2,514.4 501.2,517.2 495.6,517.2 "/>
<polyline class="st9" points="512.6,510.1 512.6,514.4 515.5,514.4 515.5,517.2 509.8,517.2 "/>
<line class="st9" x1="519.7" y1="511.5" x2="519.7" y2="520.1"/>
<line class="st9" x1="519.7" y1="507.3" x2="519.7" y2="508.7"/>
<polyline class="st9" points="528.3,510.1 528.3,514.4 531.1,514.4 "/>
<line class="st9" x1="531.1" y1="510.1" x2="531.1" y2="517.2"/>
<polyline class="st9" points="674.8,510.1 674.8,517.2 677.6,517.2 677.6,520.1 671.9,520.1 "/>
<polyline class="st9" points="686.2,510.1 686.2,512.9 691.8,512.9 "/>
<line class="st9" x1="689" y1="510.1" x2="689" y2="512.9"/>
<polyline class="st9" points="691.8,510.1 691.8,517.2 694.7,517.2 694.7,520.1 689,520.1 "/>
<line class="st9" x1="686.2" y1="520.1" x2="684.7" y2="520.1"/>
<polyline class="st9" points="831.2,508.7 831.2,512.9 834.1,512.9 "/>
<line class="st9" x1="834.1" y1="508.7" x2="834.1" y2="515.8"/>
<polyline class="st9" points="848.3,505.8 848.3,510.1 848.3,512.9 851.2,512.9 851.2,510.1 848.3,510.1 "/>
<path class="st9" d="M848.3,509.9"/>
<polyline class="st9" points="848.3,512.9 848.3,517.2 845.5,517.2 845.5,520.1 842.6,520.1 842.6,524.3 "/>
<polyline class="st9" points="967.8,508.7 965,508.7 965,515.8 962.1,515.8 962.1,518.6 967.8,518.6 "/>
<line class="st9" x1="979.2" y1="508.7" x2="979.2" y2="511.5"/>
<polyline class="st9" points="979.2,514.4 982,514.4 982,517.2 979.2,517.2 973.5,522.9 "/>
<line class="st9" x1="994.8" y1="508.7" x2="994.8" y2="521.5"/>
<polyline class="st9" points="992,517.2 989.1,517.2 989.1,522.9 "/>
<line class="st9" x1="1205.3" y1="505.8" x2="1205.3" y2="521.5"/>
<polyline class="st9" points="1208.2,517.2 1208.2,524.3 1205.3,524.3 1205.3,530 "/>
<polyline class="st9" points="1208.2,530 1208.2,527.2 1211,527.2 "/>
<line class="st9" x1="1101.5" y1="502.7" x2="1101.5" y2="526.8"/>
<text transform="matrix(1 0 0 1 1687.6914 404.9717)" class="st10 st11">?</text>
<text transform="matrix(1 0 0 1 774.4829 722.1758)" class="st10 st11">!</text>
<polyline class="st9" points="1357.6,505.8 1357.6,522.9 1351.9,522.9 1351.9,517.2 "/>
<line class="st9" x1="1367.5" y1="505.8" x2="1367.5" y2="522.9"/>
<polyline class="st9" points="1367.5,512.5 1371.8,512.5 1371.8,517.2 1367.5,517.2 "/>
<line class="st9" x1="1367.5" y1="525.7" x2="1367.5" y2="527.2"/>
<line class="st9" x1="1497" y1="505.8" x2="1497" y2="522.9"/>
<polyline class="st9" points="1508.3,505.8 1508.3,510.1 1504.1,510.1 1504.1,517.2 "/>
<line class="st9" x1="1504.1" y1="521.5" x2="1504.1" y2="522.9"/>
<polyline class="st9" points="1649.2,505.8 1649.2,522.9 1643.5,522.9 "/>
<line class="st9" x1="1643.5" y1="520.1" x2="1643.5" y2="525.7"/>
<line class="st9" x1="1640.6" y1="520.1" x2="1640.6" y2="525.7"/>
<polyline class="st9" points="1657.7,505.8 1657.7,522.9 1663.4,522.9 "/>
<text transform="matrix(1 0 0 1 411.5352 361.2236)" class="st12 st13">Sambrux</text>
<text transform="matrix(1 0 0 1 570.5352 361.2236)" class="st12 st13">Lahm Brandox</text>
<text transform="matrix(1 0 0 1 762.751 361.2236)" class="st12 st13">Vinçë Lüyn’s</text>
<text transform="matrix(1 0 0 1 950.8848 361.2236)" class="st12 st13">Nuidansë</text>
<text transform="matrix(-1.836970e-16 -1 1 -1.836970e-16 1091.0093 824.0977)" class="st12 st13">Do You See The Tree?</text>
<text transform="matrix(1 0 0 1 1091.8921 361.2236)" class="st12 st13">Damox Çegottë</text>
<text transform="matrix(1 0 0 1 1251.1177 361.2236)" class="st12 st13">Wodnïak</text>
<text transform="matrix(1 0 0 1 1390.1514 361.2236)" class="st12 st13">Messo Qült</text>
<text transform="matrix(1 0 0 1 1548.5352 299.2236)" class="st12 st14">Zet Algoreg</text>
<text transform="matrix(1 0 0 1 1698.5352 722.2236)"><tspan x="0" y="0" class="st12 st13">Al Stylrë y me khratt </tspan><tspan x="0" y="17.1" class="st12 st13">es ö montir yë de vertah </tspan><tspan x="0" y="34.1" class="st12 st13">ve khran’t en</tspan><tspan x="0" y="51.2" class="st12 st13">ö ethir sonä ç’visin,</tspan><tspan x="0" y="68.3" class="st12 st13">Int Ergo Sum.</tspan></text>
<text transform="matrix(1 0 0 1 108.3735 361.6064)" class="st15 st16">Untuned?</text>
<g>
	
		<image style="overflow:visible;" width="1921" height="1081" xlink:href="C4325151.png"  transform="matrix(8.750000e-02 0 0 8.750000e-02 1499 306)">
	</image>
</g>
</svg>
